<svg width="32" height="32" viewBox="0 0 32 32" fill="none" xmlns="http://www.w3.org/2000/svg">
  <!-- House outline -->
  <path
    d="M5 13L16 4L27 13V27C27 27.6 26.6 28 26 28H6C5.4 28 5 27.6 5 27V13Z"
    stroke="#C96F63"
    stroke-width="2.5"
    stroke-linecap="round"
    stroke-linejoin="round"
    fill="none"
  />
  <!-- Heart inside -->
  <path
    d="M16 22C16 22 11 18.5 11 15.5C11 13.8 12.2 13 13.5 13C14.4 13 15.1 13.4 16 14.2C16.9 13.4 17.6 13 18.5 13C19.8 13 21 13.8 21 15.5C21 18.5 16 22 16 22Z"
    stroke="#C96F63"
    stroke-width="2"
    stroke-linecap="round"
    stroke-linejoin="round"
    fill="none"
  />
</svg>
